<?xml version="1.0" encoding="UTF-8" standalone="no"?>
<!-- Created with Inkscape (http://www.inkscape.org/) -->

<svg
   xmlns:dc="http://purl.org/dc/elements/1.1/"
   xmlns:cc="http://creativecommons.org/ns#"
   xmlns:rdf="http://www.w3.org/1999/02/22-rdf-syntax-ns#"
   xmlns:svg="http://www.w3.org/2000/svg"
   xmlns="http://www.w3.org/2000/svg"
   xmlns:sodipodi="http://sodipodi.sourceforge.net/DTD/sodipodi-0.dtd"
   xmlns:inkscape="http://www.inkscape.org/namespaces/inkscape"
   version="1.1"
   id="svg3709"
   width="48"
   height="48"
   viewBox="0 0 48 48"
   sodipodi:docname="logo.svg"
   inkscape:version="0.92.2 (5c3e80d, 2017-08-06)">
  <metadata
     id="metadata3715">
    <rdf:RDF>
      <cc:Work
         rdf:about="">
        <dc:format>image/svg+xml</dc:format>
        <dc:type
           rdf:resource="http://purl.org/dc/dcmitype/StillImage" />
        <dc:title></dc:title>
      </cc:Work>
    </rdf:RDF>
  </metadata>
  <defs
     id="defs3713" />
  <sodipodi:namedview
     pagecolor="#ffffff"
     bordercolor="#666666"
     borderopacity="1"
     objecttolerance="10"
     gridtolerance="10"
     guidetolerance="10"
     inkscape:pageopacity="0"
     inkscape:pageshadow="2"
     inkscape:window-width="1082"
     inkscape:window-height="659"
     id="namedview3711"
     showgrid="false"
     inkscape:zoom="5.6568542"
     inkscape:cx="7.1351666"
     inkscape:cy="23.806696"
     inkscape:window-x="350"
     inkscape:window-y="280"
     inkscape:window-maximized="0"
     inkscape:current-layer="svg3709"
     fit-margin-top="0"
     fit-margin-left="0"
     fit-margin-right="0"
     fit-margin-bottom="0" />
  <g
     id="g3757">
    <path
       style="fill:#ffb380"
       d="m -2e-7,24 c 16.9116882,2.682822 8.455844,1.341411 0,0 z M 29.916168,43.417086 c 1.68829,-1.420602 3.432038,-3.981535 3.874995,-5.690962 0.583476,-2.251708 1.589904,-3.317864 3.652784,-3.869563 C 41.864612,32.674293 46,28.156383 46,24.509076 46,21.130173 41.338232,15.772811 37.357546,14.57706 36.179197,14.223098 34.661245,12.596386 33.984319,10.962144 32.472989,7.313468 26.595564,2 24.070959,2 c -2.522459,0 -7.885942,5.170813 -9.16282,8.833668 -0.688496,1.97502 -1.946462,3.205854 -3.723929,3.643611 -4.0281012,0.992045 -9.1842102,6.405253 -9.1842102,9.642163 0,3.578699 4.19325,8.459202 8.4849482,9.87559 2.058316,0.679306 3.681459,1.999587 4.077588,3.316752 0.36195,1.203519 2.046725,3.650716 3.743945,5.438216 3.804664,4.007047 7.395184,4.213357 11.609687,0.667086 z"
       id="path3745"
       inkscape:connector-curvature="0"
       sodipodi:nodetypes="ccssssssssssssss" />
    <path
       style="fill:#996734"
       d="M 14.716879,34.383545 C 14.361298,34.027964 14.488702,32.955369 15,32 c 0.511298,-0.955369 0.644787,-2.021879 0.296643,-2.370024 -0.348144,-0.348144 -0.03948,-1.741971 0.68592,-3.097394 0.97403,-1.819993 1.028949,-2.813785 0.210024,-3.800529 -0.609887,-0.734869 -0.838189,-2.37127 -0.507338,-3.636447 0.355291,-1.358631 0.08977,-2.616621 -0.648613,-3.072964 C 14.14949,15.474356 14.107851,15.051379 14.893237,14.565983 15.501957,14.189774 16,14.358254 16,14.940383 c 0,0.58213 1.4625,1.038846 3.25,1.014926 1.7875,-0.02392 4.0375,-0.0424 5,-0.04107 3.860614,0.0053 7.311818,-0.484181 8.430902,-1.195867 0.649496,-0.413049 1.444336,-0.324753 1.766312,0.196215 0.321975,0.520967 0.109765,1.241178 -0.471579,1.600469 -0.581344,0.35929 -0.776507,1.536979 -0.433694,2.617086 0.342813,1.080107 0.08577,2.611505 -0.571198,3.403108 -0.66168,0.797275 -0.872767,2.225561 -0.473227,3.202012 0.396697,0.969504 0.828228,3.233719 0.958959,5.031589 0.186987,2.57154 -0.102999,3.176798 -1.359392,2.837319 -4.728278,-1.27759 -9.007337,-1.560402 -9.580388,-0.633186 -0.351596,0.568894 -1.784988,0.746796 -3.185314,0.395336 -1.50414,-0.377515 -2.836996,-0.168254 -3.25702,0.511358 -0.391034,0.632707 -1.001901,0.859446 -1.357482,0.503864 z"
       id="path3727"
       inkscape:connector-curvature="0" />
    <path
       style="fill:#313232"
       d="M 0,24 V 0 H 24 48 V 24 48 H 24 0 Z m 29.916168,19.417086 c 1.68829,-1.420602 3.432038,-3.981535 3.874995,-5.690962 0.583476,-2.251708 1.589904,-3.317864 3.652784,-3.869563 C 41.864612,32.674293 46,28.156383 46,24.509076 46,21.130173 41.338232,15.772811 37.357546,14.57706 36.179197,14.223098 34.661245,12.596386 33.984319,10.962144 32.472989,7.3134686 26.595564,2 24.070959,2 21.5485,2 16.185017,7.1708127 14.908139,10.833668 14.219643,12.808688 12.961677,14.039522 11.18421,14.477279 7.1561091,15.469324 2,20.882532 2,24.119442 c 0,3.578699 4.1932498,8.459202 8.484948,9.87559 2.058316,0.679306 3.681459,1.999587 4.077588,3.316752 0.36195,1.203519 2.046725,3.650716 3.743945,5.438216 3.804664,4.007047 7.395184,4.213357 11.609687,0.667086 z"
       id="path3721"
       inkscape:connector-curvature="0" />
    <path
       inkscape:connector-curvature="0"
       id="path3737"
       d="m 21.713513,46.028588 c -1.464323,-0.29632 -2.75395,-1.100067 -4.400544,-2.742591 -1.743217,-1.738908 -2.97734,-3.41295 -3.905934,-5.298252 C 12.410427,35.964353 11.66181,35.305857 9.2546132,34.335197 5.6749545,32.891762 3.0111959,30.485503 1.4820194,27.313961 0.4291666,25.130323 0.4991192,23.679133 1.7606479,21.53372 c 1.7074445,-2.90376 5.0022287,-5.600286 8.0702713,-6.604894 1.9439858,-0.636544 2.9424388,-1.661687 3.9542468,-4.059948 1.537413,-3.644092 6.597216,-8.4156537 8.924027,-8.4156537 1.244665,0 3.894787,1.7161033 6.165604,3.9925752 1.644005,1.6481014 2.576138,2.891526 3.645872,4.8634435 1.148561,2.117221 2.1781,3.176456 3.698634,3.805321 1.813336,0.749962 3.380241,1.8719 4.987726,3.571325 2.160734,2.284316 3.314653,4.417097 3.328314,6.151706 0.01453,1.843776 -1.376257,4.481086 -3.317455,6.29083 -1.602869,1.494325 -2.85138,2.194496 -5.779822,3.241348 -1.452075,0.519083 -2.303029,1.48381 -2.992156,3.392207 -0.834822,2.311875 -1.552189,3.432939 -3.372756,5.270774 -2.492503,2.516144 -4.895767,3.494422 -7.359641,2.995834 z M 14.716879,34.383542 c 0.708895,-0.708896 1.483508,-0.889678 2.768167,-0.646048 1.748145,0.331528 2.883991,0.235875 3.652682,-0.307608 0.659853,-0.466529 0.769569,-0.485207 2.720514,-0.463126 1.480796,0.01676 2.657084,0.156157 4.331029,0.513253 1.263953,0.269634 2.58949,0.525511 2.945637,0.568617 0.973385,0.117811 1.108263,-0.268915 0.968015,-2.775536 -0.110012,-1.966252 -0.282776,-2.983685 -0.881421,-5.190851 -0.338727,-1.248868 -0.246612,-1.810128 0.542119,-3.303153 l 0.607016,-1.149048 -0.119883,-2.050546 -0.119883,-2.050545 0.548268,-0.624442 c 0.576085,-0.656125 0.724327,-1.480047 0.336136,-1.868238 -0.31587,-0.31587 -1.232381,-0.257045 -2.12127,0.136152 -1.691554,0.748255 -3.749633,0.955566 -9.599025,0.966912 -4.885242,0.0095 -5.541077,-0.02274 -6.042052,-0.296779 -0.325463,-0.178034 -0.585855,-0.475625 -0.618718,-0.707107 -0.07641,-0.538235 -0.664013,-0.598641 -1.260348,-0.129564 -0.606102,0.47676 -0.599381,0.743479 0.03213,1.274858 0.879758,0.740267 0.957836,1.048842 0.820706,3.243534 -0.134307,2.149517 0.0029,2.915994 0.688042,3.844251 0.569805,0.771966 0.460248,1.730007 -0.415151,3.630388 -0.738172,1.602476 -0.750404,1.660018 -0.636386,2.993862 0.103431,1.209996 0.06637,1.481444 -0.336043,2.461324 -0.491472,1.196738 -0.572674,1.977937 -0.240163,2.310448 0.358774,0.358774 0.810458,0.238417 1.429884,-0.381008 z"
       style="opacity:0;fill:#ffb380;fill-opacity:1;stroke:none;stroke-width:0.17677669;stroke-opacity:1" />
    <path
       inkscape:connector-curvature="0"
       id="path3739"
       d="m 21.713513,46.028588 c -1.464323,-0.29632 -2.75395,-1.100067 -4.400544,-2.742591 -1.743217,-1.738908 -2.97734,-3.41295 -3.905934,-5.298252 C 12.410427,35.964353 11.66181,35.305857 9.2546132,34.335197 5.6749545,32.891762 3.0111959,30.485503 1.4820194,27.313961 0.4291666,25.130323 0.4991192,23.679133 1.7606479,21.53372 c 1.7074445,-2.90376 5.0022287,-5.600286 8.0702713,-6.604894 1.9439858,-0.636544 2.9424388,-1.661687 3.9542468,-4.059948 1.537413,-3.644092 6.597216,-8.4156537 8.924027,-8.4156537 1.244665,0 3.894787,1.7161033 6.165604,3.9925752 1.644005,1.6481014 2.576138,2.891526 3.645872,4.8634435 1.148561,2.117221 2.1781,3.176456 3.698634,3.805321 1.813336,0.749962 3.380241,1.8719 4.987726,3.571325 2.160734,2.284316 3.314653,4.417097 3.328314,6.151706 0.01453,1.843776 -1.376257,4.481086 -3.317455,6.29083 -1.602869,1.494325 -2.85138,2.194496 -5.779822,3.241348 -1.452075,0.519083 -2.303029,1.48381 -2.992156,3.392207 -0.834822,2.311875 -1.552189,3.432939 -3.372756,5.270774 -2.492503,2.516144 -4.895767,3.494422 -7.359641,2.995834 z M 14.716879,34.383542 c 0.708895,-0.708896 1.483508,-0.889678 2.768167,-0.646048 1.748145,0.331528 2.883991,0.235875 3.652682,-0.307608 0.659853,-0.466529 0.769569,-0.485207 2.720514,-0.463126 1.480796,0.01676 2.657084,0.156157 4.331029,0.513253 1.263953,0.269634 2.58949,0.525511 2.945637,0.568617 0.973385,0.117811 1.108263,-0.268915 0.968015,-2.775536 -0.110012,-1.966252 -0.282776,-2.983685 -0.881421,-5.190851 -0.338727,-1.248868 -0.246612,-1.810128 0.542119,-3.303153 l 0.607016,-1.149048 -0.119883,-2.050546 -0.119883,-2.050545 0.548268,-0.624442 c 0.576085,-0.656125 0.724327,-1.480047 0.336136,-1.868238 -0.31587,-0.31587 -1.232381,-0.257045 -2.12127,0.136152 -1.691554,0.748255 -3.749633,0.955566 -9.599025,0.966912 -4.885242,0.0095 -5.541077,-0.02274 -6.042052,-0.296779 -0.325463,-0.178034 -0.585855,-0.475625 -0.618718,-0.707107 -0.07641,-0.538235 -0.664013,-0.598641 -1.260348,-0.129564 -0.606102,0.47676 -0.599381,0.743479 0.03213,1.274858 0.879758,0.740267 0.957836,1.048842 0.820706,3.243534 -0.134307,2.149517 0.0029,2.915994 0.688042,3.844251 0.569805,0.771966 0.460248,1.730007 -0.415151,3.630388 -0.738172,1.602476 -0.750404,1.660018 -0.636386,2.993862 0.103431,1.209996 0.06637,1.481444 -0.336043,2.461324 -0.491472,1.196738 -0.572674,1.977937 -0.240163,2.310448 0.358774,0.358774 0.810458,0.238417 1.429884,-0.381008 z"
       style="opacity:0;fill:#ffb380;fill-opacity:1;stroke:none;stroke-width:0.17677669;stroke-opacity:1" />
    <path
       inkscape:connector-curvature="0"
       id="path3741"
       d="m 21.713513,46.028588 c -1.464323,-0.29632 -2.75395,-1.100067 -4.400544,-2.742591 -1.743217,-1.738908 -2.97734,-3.41295 -3.905934,-5.298252 C 12.410427,35.964353 11.66181,35.305857 9.2546132,34.335197 5.6749545,32.891762 3.0111959,30.485503 1.4820194,27.313961 0.4291666,25.130323 0.4991192,23.679133 1.7606479,21.53372 c 1.7074445,-2.90376 5.0022287,-5.600286 8.0702713,-6.604894 1.9439858,-0.636544 2.9424388,-1.661687 3.9542468,-4.059948 1.537413,-3.644092 6.597216,-8.4156537 8.924027,-8.4156537 1.244665,0 3.894787,1.7161033 6.165604,3.9925752 1.644005,1.6481014 2.576138,2.891526 3.645872,4.8634435 1.148561,2.117221 2.1781,3.176456 3.698634,3.805321 1.813336,0.749962 3.380241,1.8719 4.987726,3.571325 2.160734,2.284316 3.314653,4.417097 3.328314,6.151706 0.01453,1.843776 -1.376257,4.481086 -3.317455,6.29083 -1.602869,1.494325 -2.85138,2.194496 -5.779822,3.241348 -1.452075,0.519083 -2.303029,1.48381 -2.992156,3.392207 -0.834822,2.311875 -1.552189,3.432939 -3.372756,5.270774 -2.492503,2.516144 -4.895767,3.494422 -7.359641,2.995834 z M 14.716879,34.383542 c 0.708895,-0.708896 1.483508,-0.889678 2.768167,-0.646048 1.748145,0.331528 2.883991,0.235875 3.652682,-0.307608 0.659853,-0.466529 0.769569,-0.485207 2.720514,-0.463126 1.480796,0.01676 2.657084,0.156157 4.331029,0.513253 1.263953,0.269634 2.58949,0.525511 2.945637,0.568617 0.973385,0.117811 1.108263,-0.268915 0.968015,-2.775536 -0.110012,-1.966252 -0.282776,-2.983685 -0.881421,-5.190851 -0.338727,-1.248868 -0.246612,-1.810128 0.542119,-3.303153 l 0.607016,-1.149048 -0.119883,-2.050546 -0.119883,-2.050545 0.548268,-0.624442 c 0.576085,-0.656125 0.724327,-1.480047 0.336136,-1.868238 -0.31587,-0.31587 -1.232381,-0.257045 -2.12127,0.136152 -1.691554,0.748255 -3.749633,0.955566 -9.599025,0.966912 -4.885242,0.0095 -5.541077,-0.02274 -6.042052,-0.296779 -0.325463,-0.178034 -0.585855,-0.475625 -0.618718,-0.707107 -0.07641,-0.538235 -0.664013,-0.598641 -1.260348,-0.129564 -0.606102,0.47676 -0.599381,0.743479 0.03213,1.274858 0.879758,0.740267 0.957836,1.048842 0.820706,3.243534 -0.134307,2.149517 0.0029,2.915994 0.688042,3.844251 0.569805,0.771966 0.460248,1.730007 -0.415151,3.630388 -0.738172,1.602476 -0.750404,1.660018 -0.636386,2.993862 0.103431,1.209996 0.06637,1.481444 -0.336043,2.461324 -0.491472,1.196738 -0.572674,1.977937 -0.240163,2.310448 0.358774,0.358774 0.810458,0.238417 1.429884,-0.381008 z"
       style="opacity:0;fill:#ffb380;fill-opacity:1;stroke:none;stroke-width:0.17677669;stroke-opacity:1" />
  </g>
</svg>
